<svg width="32" height="32" viewBox="0 0 32 32" fill="none" xmlns="http://www.w3.org/2000/svg">
<path fill-rule="evenodd" clip-rule="evenodd" d="M14.9893 18.1031V21.948C14.9845 22.0875 15.0078 22.2265 15.0575 22.3564C15.1071 22.4864 15.1823 22.6046 15.2782 22.7037C15.3725 22.801 15.4853 22.8774 15.6095 22.9282C15.7338 22.9791 15.8669 23.0034 16.0007 22.9996C16.1345 23.0034 16.2676 22.9791 16.3918 22.9282C16.5161 22.8774 16.6288 22.801 16.7231 22.7037C16.9181 22.5013 17.0325 22.232 17.0443 21.948L17.0436 18.1031L22.5 14.5864V13.2059L17.0436 14.9482V11.1033L18.392 10.0517V9L16.0164 9.68988L13.6087 9V10.0517L14.9893 11.1033L14.9893 14.9482L9.5 13.2066V14.5864L14.9893 18.1031Z" fill="#9BA6B2"/>
</svg>
